<?xml version="1.0" standalone="no"?>
<!DOCTYPE svg PUBLIC "-//W3C//DTD SVG 20010904//EN"
 "http://www.w3.org/TR/2001/REC-SVG-20010904/DTD/svg10.dtd">
<svg version="1.0" xmlns="http://www.w3.org/2000/svg"
 width="879.000000pt" height="1280.000000pt" viewBox="0 0 879.000000 1280.000000"
 preserveAspectRatio="xMidYMid meet">
<g transform="translate(0.000000,1280.000000) scale(0.100000,-0.100000)"
fill="#000000" stroke="none">
<path d="M5186 12774 c-205 -42 -375 -121 -599 -278 -259 -181 -516 -443 -672
-685 -91 -141 -173 -341 -224 -546 -72 -288 -165 -947 -192 -1355 -14 -218 -6
-678 16 -850 32 -253 102 -537 183 -737 13 -31 17 -55 12 -58 -5 -3 -53 8
-106 25 -824 264 -1849 246 -2504 -44 -217 -97 -399 -222 -565 -390 -152 -153
-262 -319 -305 -459 -33 -107 -39 -148 -46 -308 -15 -376 82 -690 332 -1070
52 -79 93 -147 91 -152 -1 -5 -54 -9 -117 -10 -105 -2 -120 -5 -174 -31 -124
-60 -233 -206 -274 -366 -50 -191 -50 -203 -17 -445 42 -314 132 -587 270
-820 64 -108 208 -316 281 -404 29 -35 51 -68 48 -72 -2 -4 -29 -19 -59 -33
-116 -53 -199 -165 -230 -311 -19 -89 -19 -278 -1 -415 62 -457 215 -811 464
-1071 58 -61 62 -68 46 -80 -63 -50 -113 -111 -130 -160 -28 -83 -24 -247 10
-364 111 -378 411 -692 892 -933 236 -118 355 -153 704 -207 129 -20 237 -38
240 -40 13 -8 355 -75 455 -89 146 -21 235 -20 429 5 191 24 352 58 496 105
l105 33 75 -23 c252 -80 478 -89 822 -31 320 53 626 158 989 340 253 126 441
253 607 409 l105 99 26 -31 c39 -47 86 -62 193 -62 114 0 199 15 460 79 446
109 611 194 761 394 78 103 148 229 208 375 74 182 271 770 318 952 76 292
128 616 150 925 6 83 16 215 22 295 11 154 10 296 -9 855 -24 710 -36 819
-101 977 -69 164 -251 387 -441 541 -228 183 -435 290 -769 395 -20 6 -28 25
-57 126 -63 217 -153 404 -269 556 -56 73 -259 279 -508 514 -191 180 -272
272 -381 434 -137 203 -224 396 -261 577 -53 260 -67 381 -72 630 -6 262 -1
316 72 845 103 740 133 1010 142 1275 15 500 -62 809 -248 993 -59 59 -169
125 -249 151 -73 23 -226 51 -274 50 -28 0 -104 -12 -170 -25z m276 -108 c102
-20 167 -46 242 -100 111 -79 189 -198 227 -343 48 -190 54 -246 53 -528 0
-276 0 -284 -59 -755 -14 -107 -36 -295 -50 -416 -13 -122 -33 -259 -44 -305
-99 -427 -119 -910 -50 -1224 27 -128 103 -353 158 -470 120 -255 231 -390
695 -850 211 -209 367 -372 405 -424 181 -244 288 -591 335 -1091 42 -435 43
-646 6 -865 -31 -180 -69 -278 -205 -534 -87 -163 -155 -330 -155 -380 0 -27
38 -37 85 -21 40 13 43 19 75 130 12 42 72 173 136 298 190 369 229 521 227
892 -1 225 -25 528 -58 723 -20 117 -20 137 4 137 24 0 167 -58 262 -106 119
-59 224 -128 347 -228 203 -164 327 -307 407 -471 98 -200 108 -280 127 -1035
18 -748 4 -1218 -48 -1570 -45 -312 -107 -544 -236 -885 -49 -132 -123 -338
-164 -458 -83 -245 -148 -382 -227 -474 -75 -88 -121 -121 -293 -207 -200 -99
-276 -129 -415 -160 -190 -42 -330 -31 -402 33 -29 26 -31 34 -29 82 4 85 38
212 98 360 31 77 54 146 50 154 -6 17 -42 19 -101 5 -53 -12 -148 -111 -212
-222 -121 -208 -466 -596 -693 -779 -111 -89 -575 -280 -835 -344 -193 -47
-295 -59 -510 -58 -210 1 -320 16 -320 42 0 7 65 54 145 103 327 202 616 477
795 758 80 126 242 451 284 572 65 187 126 492 156 780 19 185 19 230 -1 325
-20 98 -56 176 -129 283 -94 137 -110 179 -110 285 0 106 19 157 85 229 89 97
231 157 418 178 88 9 157 9 329 0 120 -7 376 -15 568 -18 342 -6 351 -5 383
15 17 11 32 25 32 30 0 11 -8 12 -165 37 -219 34 -515 108 -707 178 -604 220
-957 544 -1064 976 -17 68 -19 121 -19 550 l0 475 -27 97 c-54 196 -132 300
-352 471 -225 174 -253 204 -440 476 -100 143 -144 164 -194 91 -117 -172
-214 -262 -365 -335 -142 -68 -185 -77 -404 -82 -225 -6 -316 8 -427 63 -91
46 -126 73 -281 224 -149 144 -304 263 -455 349 -116 66 -293 141 -333 141
-32 0 -91 -50 -79 -67 4 -7 51 -29 103 -51 189 -75 390 -210 629 -422 642
-568 716 -606 1025 -528 98 24 196 69 301 136 113 72 124 76 254 76 129 0 237
-22 368 -75 116 -46 188 -95 288 -194 79 -77 98 -103 137 -185 98 -203 103
-431 16 -692 -136 -411 -449 -663 -934 -752 -237 -43 -819 -56 -1020 -23 -239
41 -424 123 -562 250 -42 39 -42 39 -37 96 4 41 -1 83 -20 161 -14 58 -26 122
-26 142 0 32 -4 39 -24 44 -29 7 -89 -11 -107 -32 -17 -20 -6 -142 21 -228 28
-89 22 -112 -37 -138 -37 -16 -60 -19 -117 -16 -94 6 -246 73 -537 235 -394
220 -534 318 -735 518 -146 145 -215 233 -323 414 -121 202 -201 403 -243 615
-19 92 -23 143 -22 296 0 172 2 191 27 273 64 206 163 363 342 543 273 273
560 398 1060 461 115 15 218 18 580 17 274 0 489 -5 570 -12 455 -44 712 -136
913 -325 71 -67 75 -69 114 -64 23 3 50 15 62 27 l21 21 -21 37 c-102 179
-128 231 -168 327 -87 214 -143 439 -183 731 -22 164 -25 785 -5 994 20 207
90 767 113 898 94 550 234 838 571 1173 116 115 250 227 375 313 249 171 528
245 755 202z m-4858 -6866 l69 -10 121 -118 c258 -251 593 -466 1043 -669 205
-93 415 -169 777 -282 404 -127 584 -150 1016 -131 139 6 306 17 369 26 137
17 362 71 480 114 161 59 285 51 449 -30 210 -103 334 -233 376 -392 32 -124
28 -290 -10 -448 -24 -98 -93 -236 -162 -322 -199 -250 -672 -524 -1233 -716
-489 -167 -746 -204 -981 -141 -21 5 -38 14 -38 18 0 5 26 24 58 41 91 51 181
122 263 207 74 77 129 143 129 156 0 11 -77 8 -105 -5 -14 -6 -50 -44 -80 -84
-121 -161 -254 -265 -382 -300 -58 -16 -74 -16 -142 -5 -42 7 -109 22 -150 32
-87 22 -421 159 -573 235 -247 123 -860 549 -1129 786 -133 117 -264 295 -363
495 -180 363 -252 589 -278 875 -23 257 25 469 128 571 48 48 103 77 174 93
69 16 89 16 174 4z m184 -2207 c365 -296 731 -533 1147 -741 378 -189 521
-235 810 -257 44 -3 136 -13 205 -22 262 -33 512 7 975 157 210 69 338 124
640 279 138 70 267 131 288 134 28 4 57 -1 102 -17 210 -76 325 -239 375 -534
57 -330 -15 -487 -324 -705 -130 -93 -206 -129 -431 -212 -93 -34 -256 -99
-362 -144 -458 -193 -615 -248 -811 -281 -117 -21 -366 -28 -376 -12 -3 5 15
31 40 58 73 79 114 179 114 281 l0 53 -34 0 c-51 0 -96 -19 -101 -43 -2 -12
-7 -44 -10 -72 -10 -85 -35 -144 -79 -190 -49 -51 -91 -65 -202 -65 -124 0
-196 21 -514 154 -47 19 -249 84 -450 145 -410 123 -485 149 -585 198 -286
143 -478 361 -589 671 -79 220 -166 671 -166 857 0 148 31 267 83 324 22 24
111 71 135 71 7 0 61 -39 120 -87z m299 -1882 c184 -62 474 -153 703 -222 96
-29 249 -81 340 -116 325 -127 385 -145 614 -190 128 -25 162 -27 366 -28
l225 0 145 37 c176 44 320 92 494 165 227 94 480 191 543 207 76 20 215 21
277 2 67 -20 120 -60 156 -116 43 -66 66 -236 50 -355 -22 -153 -71 -224 -312
-452 -187 -176 -265 -235 -433 -327 -216 -119 -392 -178 -600 -201 -417 -45
-767 -20 -849 61 -46 46 -37 77 46 156 69 66 72 70 54 84 -41 29 -91 15 -168
-48 -172 -140 -428 -165 -713 -72 -152 50 -416 185 -608 312 -248 163 -519
552 -597 858 -32 125 -25 200 23 253 49 52 64 52 244 -8z"/>
</g>
</svg>
